<?xml version="1.0" standalone="no"?>
<!DOCTYPE svg PUBLIC "-//W3C//DTD SVG 20010904//EN"
 "http://www.w3.org/TR/2001/REC-SVG-20010904/DTD/svg10.dtd">
<svg version="1.0" xmlns="http://www.w3.org/2000/svg"
 width="633.000000pt" height="633.000000pt" viewBox="0 0 633.000000 633.000000"
 preserveAspectRatio="xMidYMid meet">
<metadata>
Created by potrace 1.14, written by Peter Selinger 2001-2017
</metadata>
<g transform="translate(0.000000,633.000000) scale(0.100000,-0.100000)"
fill="#000000" stroke="none">
<path d="M2072 5207 l-1094 -1094 481 -474 481 -474 -485 -485 -485 -485 1086
-1086 1086 -1086 1098 1096 1099 1096 -482 483 -482 484 482 477 483 476
-1083 1083 c-595 595 -1084 1082 -1087 1082 -3 0 -497 -492 -1098 -1093z
m2090 -96 l993 -990 -416 -413 c-228 -227 -674 -668 -990 -980 l-576 -567
-239 240 -239 239 175 175 c141 142 179 175 195 169 11 -3 46 -8 77 -11 50 -5
63 -2 103 21 53 32 102 94 111 143 4 19 1 60 -5 91 l-11 57 232 232 233 233
-315 315 -315 315 -562 -562 -563 -563 -438 438 -437 439 990 984 c544 541
993 984 997 984 4 0 454 -445 1000 -989z m-635 -1459 c-39 -41 -120 -118 -179
-172 l-106 -99 -55 6 c-80 8 -123 -3 -169 -45 -69 -62 -92 -138 -68 -222 l10
-35 -241 -241 -241 -241 29 -18 c15 -10 166 -156 335 -323 l308 -305 561 558
562 557 438 -438 439 -439 -989 -989 -989 -989 -1000 993 -999 993 566 560
c311 309 757 751 991 984 l425 423 222 -222 223 -223 -73 -73z m-303 -396 c43
-40 49 -90 15 -137 -57 -81 -189 -36 -189 65 0 51 54 106 105 106 24 0 43 -9
69 -34z"/>
</g>
</svg>
